<?xml version="1.0" encoding="utf-8"?>
<!-- Generated by IcoMoon.io -->
<!DOCTYPE svg PUBLIC "-//W3C//DTD SVG 1.1//EN" "http://www.w3.org/Graphics/SVG/1.1/DTD/svg11.dtd">
<svg version="1.1" xmlns="http://www.w3.org/2000/svg" xmlns:xlink="http://www.w3.org/1999/xlink" width="40" height="40" viewBox="0 0 40 40">
<path d="M24.864 0c2.68 0 4.020 1.828 4.020 3.916 0 2.608-2.328 5.022-5.356 5.022-2.54 0-4.020-1.5-3.95-3.978 0-2.090 1.76-4.96 5.286-4.96zM16.618 40c-2.116 0-3.666-1.304-2.186-7.046l2.428-10.182c0.422-1.63 0.492-2.284 0-2.284-0.636 0-3.38 1.126-5.004 2.236l-1.056-1.762c5.146-4.372 11.064-6.934 13.602-6.934 2.114 0 2.464 2.544 1.41 6.458l-2.782 10.704c-0.492 1.892-0.282 2.544 0.21 2.544 0.636 0 2.714-0.786 4.758-2.416l1.2 1.63c-5.002 5.092-10.466 7.052-12.58 7.052z" fill="#444444"></path>
</svg>
