<?xml version="1.0" encoding="utf-8"?>
<!-- Generated by IcoMoon.io -->
<!DOCTYPE svg PUBLIC "-//W3C//DTD SVG 1.1//EN" "http://www.w3.org/Graphics/SVG/1.1/DTD/svg11.dtd">
<svg version="1.1" xmlns="http://www.w3.org/2000/svg" xmlns:xlink="http://www.w3.org/1999/xlink" width="40" height="40" viewBox="0 0 40 40">
<path d="M39.366 10.048l-9.348-5.854c-0.414-0.26-0.932-0.26-1.346 0l-8.672 5.432-8.672-5.43c-0.414-0.26-0.932-0.26-1.346 0l-9.348 5.852c-0.392 0.246-0.634 0.692-0.634 1.17v23.414c0 0.492 0.252 0.948 0.664 1.19s0.914 0.236 1.318-0.018l8.672-5.432 8.672 5.432c0.414 0.26 0.932 0.26 1.348 0l8.672-5.432 8.672 5.432c0.206 0.13 0.44 0.196 0.674 0.196 0.222 0 0.444-0.060 0.644-0.178 0.41-0.242 0.664-0.698 0.664-1.19v-23.414c0-0.478-0.242-0.924-0.634-1.17zM9.346 28.006l-6.73 4.214v-20.228l6.73-4.214v20.228zM18.692 32.22l-6.73-4.214v-20.228l6.73 4.214v20.228zM28.038 28.006l-6.728 4.214v-20.228l6.728-4.214v20.228zM37.382 32.22l-6.728-4.214v-20.228l6.728 4.214v20.228z" fill="#444444"></path>
</svg>
