<?xml version="1.0" encoding="utf-8"?>
<!-- Generated by IcoMoon.io -->
<!DOCTYPE svg PUBLIC "-//W3C//DTD SVG 1.1//EN" "http://www.w3.org/Graphics/SVG/1.1/DTD/svg11.dtd">
<svg version="1.1" xmlns="http://www.w3.org/2000/svg" xmlns:xlink="http://www.w3.org/1999/xlink" width="40" height="40" viewBox="0 0 40 40">
<path d="M34.446 14.058c-3.166-7.37-8.264-12.982-10.842-11.932-4.378 1.78 2.61 10.328-18.892 19.068-1.858 0.754-2.328 3.776-1.55 5.582 0.776 1.806 3.316 3.604 5.174 2.85 0.32-0.13 1.502-0.51 1.502-0.51 1.326 1.78 2.714 0.724 3.208 1.856 0.592 1.36 1.878 4.314 2.314 5.318 0.44 1.004 1.432 1.936 2.152 1.662 0.716-0.274 3.162-1.206 4.098-1.56s1.16-1.19 0.874-1.848c-0.308-0.708-1.572-0.916-1.932-1.744-0.362-0.828-1.54-3.478-1.878-4.314-0.46-1.136 0.518-2.060 1.94-2.208 9.788-1.020 11.618 5.026 14.95 3.67 2.572-1.052 2.048-8.52-1.118-15.89zM33.344 26.012c-0.572 0.232-4.424-2.804-6.886-8.534-2.46-5.728-2.15-10.964-1.58-11.196 0.572-0.234 4.33 3.432 6.792 9.16 2.458 5.726 2.246 10.338 1.674 10.57z" fill="#444444"></path>
</svg>
