<?xml version="1.0" encoding="utf-8"?>
<!-- Generated by IcoMoon.io -->
<!DOCTYPE svg PUBLIC "-//W3C//DTD SVG 1.1//EN" "http://www.w3.org/Graphics/SVG/1.1/DTD/svg11.dtd">
<svg version="1.1" xmlns="http://www.w3.org/2000/svg" xmlns:xlink="http://www.w3.org/1999/xlink" width="40" height="40" viewBox="0 0 40 40">
<path d="M10.546 13.828c0.402 0 0.79 0.060 1.154 0.174 1.38-1.546 2.91-2.954 4.566-4.202-0.068-0.29-0.11-0.594-0.11-0.908 0-0.436 0.072-0.852 0.204-1.24-1.854-1.332-3.874-2.448-6.018-3.312-2.014 1.244-3.768 2.866-5.166 4.766 1.038 1.838 2.274 3.552 3.676 5.114 0.514-0.25 1.088-0.392 1.694-0.392zM6.632 17.742c0-0.548 0.114-1.072 0.318-1.546-1.254-1.38-2.394-2.868-3.392-4.456-1.25 2.484-1.958 5.29-1.958 8.26 0 3.442 0.948 6.66 2.592 9.414 0.586-3.31 1.702-6.44 3.24-9.308-0.5-0.656-0.8-1.474-0.8-2.364zM20.070 4.976c1.036 0 1.972 0.404 2.672 1.058 2.042-0.878 4.194-1.552 6.432-1.982-2.702-1.556-5.832-2.452-9.174-2.452-2.278 0-4.458 0.418-6.47 1.176 1.598 0.79 3.122 1.708 4.552 2.748 0.584-0.346 1.262-0.548 1.988-0.548zM25.926 23.416c0.244-0.508 0.59-0.956 1.018-1.312-1.156-3.556-2.986-6.808-5.344-9.608-0.47 0.2-0.986 0.31-1.53 0.31-0.848 0-1.632-0.274-2.274-0.732-1.42 1.078-2.732 2.288-3.926 3.608 0.372 0.598 0.59 1.302 0.59 2.060 0 0.41-0.062 0.802-0.178 1.174 3.434 2.294 7.386 3.868 11.644 4.5zM31.004 28.702c0.052 0.74 0.082 1.488 0.082 2.242 0 1.33-0.086 2.636-0.246 3.922 3.122-2.28 5.496-5.514 6.696-9.278-1.42 0.344-2.876 0.59-4.362 0.732-0.35 1.070-1.146 1.938-2.17 2.382zM25.008 26.046c-4.542-0.752-8.754-2.484-12.418-4.968-0.596 0.366-1.292 0.58-2.042 0.58-0.276 0-0.542-0.030-0.802-0.084-1.754 3.328-2.876 7.040-3.2 10.972 1.752 1.878 3.89 3.39 6.292 4.406 2.98-4.582 7.148-8.376 12.17-10.906zM32.352 6.364c-2.948 0.284-5.764 1.024-8.386 2.136 0.016 0.128 0.022 0.26 0.022 0.392 0 0.618-0.146 1.2-0.402 1.718 2.62 3.076 4.654 6.66 5.94 10.582 1.59 0.030 2.952 1.004 3.538 2.39 1.772-0.18 3.496-0.52 5.158-1.008 0.114-0.84 0.178-1.698 0.178-2.574 0-5.408-2.334-10.272-6.048-13.636zM26.978 28.138c-4.69 2.196-8.608 5.578-11.448 9.712 1.43 0.358 2.928 0.55 4.47 0.55 2.778 0 5.406-0.618 7.766-1.718 0.378-1.854 0.58-3.772 0.58-5.738 0-0.708-0.034-1.412-0.086-2.11-0.472-0.15-0.906-0.388-1.282-0.696z" fill="#444444"></path>
</svg>
