<?xml version="1.0" encoding="utf-8"?>
<!-- Generated by IcoMoon.io -->
<!DOCTYPE svg PUBLIC "-//W3C//DTD SVG 1.1//EN" "http://www.w3.org/Graphics/SVG/1.1/DTD/svg11.dtd">
<svg version="1.1" xmlns="http://www.w3.org/2000/svg" xmlns:xlink="http://www.w3.org/1999/xlink" width="40" height="40" viewBox="0 0 40 40">
<path d="M28.18 4.468c-2.282-1.646-5.144-2.468-8.592-2.468-2.624 0-4.836 0.58-6.634 1.736-2.854 1.812-4.37 4.888-4.554 9.228h6.612c0-1.264 0.368-2.482 1.106-3.654s1.99-1.758 3.756-1.758c1.794 0 3.032 0.476 3.708 1.426 0.678 0.954 1.016 2.008 1.016 3.164 0 1.006-0.504 1.926-1.112 2.764-0.334 0.488-0.776 0.936-1.322 1.348 0 0-3.586 2.3-5.162 4.148-0.914 1.072-0.996 2.676-1.076 4.978-0.006 0.164 0.056 0.502 0.63 0.502s4.634 0 5.144 0 0.616-0.378 0.624-0.544c0.036-0.838 0.13-1.266 0.284-1.75 0.29-0.914 1.074-1.712 1.958-2.398l1.82-1.256c1.642-1.28 2.954-2.33 3.532-3.154 0.988-1.356 1.682-3.024 1.682-5.002 0-3.23-1.142-5.666-3.42-7.31zM19.482 29.848c-2.28-0.068-4.16 1.508-4.232 3.98-0.072 2.47 1.716 4.102 3.996 4.17 2.38 0.070 4.21-1.456 4.282-3.926 0.070-2.472-1.666-4.154-4.046-4.224z" fill="#444444"></path>
</svg>
