<?xml version="1.0" encoding="utf-8"?>
<!-- Generated by IcoMoon.io -->
<!DOCTYPE svg PUBLIC "-//W3C//DTD SVG 1.1//EN" "http://www.w3.org/Graphics/SVG/1.1/DTD/svg11.dtd">
<svg version="1.1" xmlns="http://www.w3.org/2000/svg" xmlns:xlink="http://www.w3.org/1999/xlink" width="40" height="40" viewBox="0 0 40 40">
<path d="M17 2h-1.798c-0.442 0-0.802 0.36-0.802 0.8v7.6h-7.072c-0.33 0-0.74 0.076-1.132 0.196-0.396 0.122-0.774 0.29-1.044 0.474l-4.75 3.26c-0.268 0.184-0.402 0.426-0.402 0.67s0.134 0.486 0.402 0.67l4.75 3.26c0.27 0.184 0.648 0.352 1.044 0.474 0.392 0.12 0.802 0.196 1.132 0.196h7.072v17.6c0 0.442 0.36 0.8 0.8 0.8h1.8c0.442 0 0.8-0.36 0.8-0.8v-34.4c0-0.44-0.358-0.8-0.8-0.8zM39.598 10.332l-4.75-3.26c-0.268-0.184-0.646-0.352-1.042-0.474-0.394-0.122-0.804-0.198-1.134-0.198h-13.672l1.602 9.2h12.070c0.33 0 0.74-0.076 1.134-0.196s0.774-0.29 1.042-0.472l4.75-3.26c0.27-0.186 0.402-0.428 0.402-0.672s-0.132-0.486-0.402-0.668z" fill="#444444"></path>
</svg>
