<?xml version="1.0" encoding="utf-8"?>
<!-- Generated by IcoMoon.io -->
<!DOCTYPE svg PUBLIC "-//W3C//DTD SVG 1.1//EN" "http://www.w3.org/Graphics/SVG/1.1/DTD/svg11.dtd">
<svg version="1.1" xmlns="http://www.w3.org/2000/svg" xmlns:xlink="http://www.w3.org/1999/xlink" width="40" height="40" viewBox="0 0 40 40">
<path d="M6.268 13.78c1.868-1.45 3.416-0.452 5.482 1.94 0.234 0.268 0.546-0.046 0.722-0.2 0.176-0.156 2.904-2.608 3.036-2.722 0.134-0.118 0.294-0.338 0.082-0.584s-0.988-1.25-1.486-1.9c-3.616-4.73 9.892-7.938 7.816-7.988-1.054-0.028-5.292-0.076-5.924-0.010-2.566 0.272-5.788 2.67-7.41 3.786-2.12 1.458-2.914 2.304-3.044 2.422-0.6 0.526-0.096 1.734-1.184 2.688-1.15 1.008-1.866 0.246-2.532 0.83-0.332 0.292-1.254 0.982-1.52 1.216-0.264 0.232-0.312 0.626-0.042 0.942 0 0 2.526 2.792 2.74 3.038 0.212 0.246 0.782 0.454 1.136 0.142 0.354-0.31 1.262-1.108 1.416-1.244 0.156-0.134-0.1-1.726 0.712-2.356zM17.686 14.812c-0.24-0.278-0.536-0.284-0.794-0.056l-2.87 2.502c-0.224 0.2-0.254 0.568-0.052 0.8l16.588 18.876c0.386 0.448 1.058 0.494 1.504 0.106l1.942-1.624c0.442-0.388 0.488-1.068 0.102-1.514l-16.42-19.090zM39.804 6.778c-0.148-0.988-0.66-0.78-0.926-0.36-0.262 0.418-1.442 2.202-1.926 3.008-0.48 0.804-1.66 2.382-3.868 0.824-2.296-1.624-1.496-2.758-1.098-3.52 0.402-0.766 1.636-2.91 1.816-3.18 0.176-0.27-0.032-1.054-0.742-0.726-0.714 0.33-5.046 2.052-5.648 4.52-0.614 2.514 0.516 4.758-1.7 6.988l-2.684 2.8 2.696 3.136 3.308-3.142c0.79-0.792 2.472-1.562 3.996-1.216 3.266 0.74 5.046-0.488 6.122-2.514 0.964-1.814 0.804-5.63 0.654-6.618zM5.48 34.102c-0.416 0.42-0.416 1.1 0 1.518l1.902 1.86c0.416 0.418 1.076 0.242 1.492-0.176l9.814-9.65-3.008-3.426-10.2 9.874z" fill="#444444"></path>
</svg>
